<svg xmlns="http://www.w3.org/2000/svg" viewBox="0 0 33.35 33.35"><defs><style>.cls-1{fill:#fff;}.cls-2{fill:#f58624;}</style></defs><title>filters</title><g id="Layer_2" data-name="Layer 2"><g id="Layer_1-2" data-name="Layer 1"><path class="cls-1" d="M16.68,33.35A16.68,16.68,0,1,1,33.35,16.68,16.7,16.7,0,0,1,16.68,33.35ZM16.68,2A14.68,14.68,0,1,0,31.35,16.68,14.69,14.69,0,0,0,16.68,2Z"/><rect class="cls-1" x="9.25" y="8.16" width="2" height="16.03"/><circle class="cls-2" cx="10.21" cy="16.47" r="2.39"/><path class="cls-1" d="M10.21,19.86a3.39,3.39,0,1,1,3.39-3.39A3.39,3.39,0,0,1,10.21,19.86Zm0-4.78a1.39,1.39,0,1,0,1.39,1.39A1.39,1.39,0,0,0,10.21,15.08Z"/><rect class="cls-1" x="15.84" y="8.16" width="2" height="16.03"/><rect class="cls-1" x="22.44" y="8.16" width="2" height="16.03"/><circle class="cls-2" cx="16.9" cy="10.85" r="2.39"/><path class="cls-1" d="M16.9,14.24a3.39,3.39,0,1,1,3.39-3.39A3.39,3.39,0,0,1,16.9,14.24Zm0-4.78a1.39,1.39,0,1,0,1.39,1.39A1.39,1.39,0,0,0,16.9,9.46Z"/><circle class="cls-2" cx="23.46" cy="21.1" r="2.39"/><path class="cls-1" d="M23.46,24.49a3.39,3.39,0,1,1,3.39-3.39A3.39,3.39,0,0,1,23.46,24.49Zm0-4.78a1.39,1.39,0,1,0,1.39,1.39A1.39,1.39,0,0,0,23.46,19.71Z"/></g></g></svg>