<svg xmlns:dc="http://purl.org/dc/elements/1.1/" xmlns:cc="http://creativecommons.org/ns#" xmlns:rdf="http://www.w3.org/1999/02/22-rdf-syntax-ns#" xmlns:svg="http://www.w3.org/2000/svg" xmlns="http://www.w3.org/2000/svg" xmlns:sodipodi="http://sodipodi.sourceforge.net/DTD/sodipodi-0.dtd" xmlns:inkscape="http://www.inkscape.org/namespaces/inkscape" viewBox="0 0 8.4666665 10.583333625" version="1.1" x="0px" y="0px"><g transform="translate(0,-288.53332)"><path d="m -2.1977865e-7,292.58475 0.61057695977865,0 0.18317309,-0.5457 0.18317308,0.5457 0.61057689,0 -0.4884616,0.36381 0.1831732,0.5457 -0.48846157,-0.30316 -0.48846157,0.30316 0.18317309,-0.5457 z" style="" fill="#000000" fill-rule="evenodd" stroke="none"/><path d="m 5.9531249,292.03904 -0.1829345,0.5457 -0.6108155,0 0.4883422,0.36381 -0.1829345,0.5457 0.4883423,-0.30334 0.4883423,0.30334 -0.1829345,-0.5457 0.4883422,-0.36381 -0.6108155,0 z m 0,0.41135 0.088367,0.26355 0.2950723,0 -0.2361613,0.17569 0.088883,0.26356 -0.2361613,-0.14625 -0.2361613,0.14625 0.088883,-0.26356 -0.2361613,-0.17569 0.2950726,0 z" style="" fill="#000000" fill-rule="evenodd" stroke="none"/><path style="" d="m 3.4395832,292.58475 0.6105771,0 0.1831729,-0.5457 0.1831732,0.5457 0.6105768,0 -0.4884616,0.36381 0.1831732,0.5457 -0.4884616,-0.30316 -0.4884616,0.30316 0.1831732,-0.5457 z" fill="#000000" fill-rule="evenodd" stroke="none"/><path d="m 1.7197915,292.58475 0.6105771,0 0.1831729,-0.5457 0.1831731,0.5457 0.6105769,0 -0.4884616,0.36381 0.1831732,0.5457 -0.4884616,-0.30316 -0.4884616,0.30316 0.1831732,-0.5457 z" style="" fill="#000000" fill-rule="evenodd" stroke="none"/><path style="" d="m 7.6729166,292.03905 -0.1829345,0.5457 -0.6108155,0 0.4883423,0.36381 -0.1829346,0.5457 0.4883423,-0.30335 0.4883423,0.30335 -0.1829345,-0.5457 0.4883422,-0.36381 -0.6108155,0 z m 0,0.41135 0.088367,0.26352 0.2950723,0 -0.2361613,0.17571 0.088883,0.26356 -0.2361613,-0.14624 -0.2361613,0.14624 0.088883,-0.26356 -0.2361613,-0.17571 0.2950726,0 z" fill="#000000" fill-rule="evenodd" stroke="none"/></g><text x="0" y="23.4666669" fill="#000000" font-size="5px" font-weight="bold" font-family="'Helvetica Neue', Helvetica, Arial-Unicode, Arial, Sans-serif">Created by anbileru adaleru</text><text x="0" y="28.4666669" fill="#000000" font-size="5px" font-weight="bold" font-family="'Helvetica Neue', Helvetica, Arial-Unicode, Arial, Sans-serif">from the Noun Project</text></svg>