<svg stroke="none" fill="#27ae60" style="width: 200px;height: 200px;" data-name="Layer 1" xmlns="http://www.w3.org/2000/svg" viewBox="0 0 295.16 345.1"><title>Logo Black</title><path d="M279.01 114.03c-16.78-9.45-37.87 2.88-41.25 5l-72.45 41.09a28.29 28.29 0 1 0 10.26 17.21l72.25-41 .44-.27c4.75-3 15.77-7.49 20.92-4.58 3.71 2.09 5.83 9.09 6 19.4h-.09v90.63a23.74 23.74 0 0 1-11.84 20.5l-103.86 60a23.74 23.74 0 0 1-23.67 0l-103.86-60a23.74 23.74 0 0 1-11.84-20.5V121.56a23.74 23.74 0 0 1 11.84-20.5l94-54.25a28.25 28.25 0 1 0-6.95-19.08l-97 56A43.79 43.79 0 0 0 0 121.56v119.92a43.79 43.79 0 0 0 21.84 37.85l103.86 60a43.79 43.79 0 0 0 43.67 0l103.86-60a43.79 43.79 0 0 0 21.84-37.82v-87.18h.07c.51-20.45-4.96-34-16.13-40.3z"></path></svg>