<?xml version="1.0" encoding="UTF-8"?><!DOCTYPE svg PUBLIC "-//W3C//DTD SVG 1.1//EN" "http://www.w3.org/Graphics/SVG/1.1/DTD/svg11.dtd"><svg xmlns="http://www.w3.org/2000/svg"><symbol id="filter" viewBox="0 0 33.35 33.35"><defs><style>.cls-1{fill:#fff}.cls-2{fill:#f58624}</style></defs><title>filters</title><g id="Layer_2" data-name="Layer 2"><g id="Layer_1-2" data-name="Layer 1"><path class="cls-1" d="M16.68 33.35a16.68 16.68 0 1 1 16.67-16.67 16.7 16.7 0 0 1-16.67 16.67zm0-31.35a14.68 14.68 0 1 0 14.67 14.68A14.69 14.69 0 0 0 16.68 2z"/><path class="cls-1" d="M9.25 8.16h2v16.03h-2z"/><circle class="cls-2" cx="10.21" cy="16.47" r="2.39"/><path class="cls-1" d="M10.21 19.86a3.39 3.39 0 1 1 3.39-3.39 3.39 3.39 0 0 1-3.39 3.39zm0-4.78a1.39 1.39 0 1 0 1.39 1.39 1.39 1.39 0 0 0-1.39-1.39zM15.84 8.16h2v16.03h-2zM22.44 8.16h2v16.03h-2z"/><circle class="cls-2" cx="16.9" cy="10.85" r="2.39"/><path class="cls-1" d="M16.9 14.24a3.39 3.39 0 1 1 3.39-3.39 3.39 3.39 0 0 1-3.39 3.39zm0-4.78a1.39 1.39 0 1 0 1.39 1.39 1.39 1.39 0 0 0-1.39-1.39z"/><circle class="cls-2" cx="23.46" cy="21.1" r="2.39"/><path class="cls-1" d="M23.46 24.49a3.39 3.39 0 1 1 3.39-3.39 3.39 3.39 0 0 1-3.39 3.39zm0-4.78a1.39 1.39 0 1 0 1.39 1.39 1.39 1.39 0 0 0-1.39-1.39z"/></g></g></symbol><symbol id="home-bg" viewBox="0 0 375 411"><title>Rectangle 21</title><path d="M0-3h375v109L0 410.78z" fill="#2D99CF" fill-rule="evenodd"/></symbol><symbol id="rating" viewBox="0 0 8.4666665 10.583333625"><g fill-rule="evenodd"><path d="M0 4.051h.61l.184-.545.183.545h.61l-.488.364.183.546-.488-.303-.489.303.183-.546zM5.953 3.506l-.183.545h-.61l.488.364-.183.546.488-.303.488.303-.182-.546.488-.364h-.61zm0 .411l.088.264h.296l-.237.175.09.264-.237-.146-.236.146.089-.264-.236-.175h.295zM3.44 4.051h.61l.183-.545.184.545h.61l-.488.364.183.546-.489-.303-.488.303.183-.546zM1.72 4.051h.61l.184-.545.183.545h.61l-.488.364.183.546-.488-.303-.489.303.183-.546zM7.673 3.506l-.183.545h-.61l.488.364-.183.546.488-.303.488.303-.183-.546.489-.364h-.611zm0 .411l.088.264h.295l-.236.175.09.264-.237-.146-.236.146.089-.264-.237-.175h.296z"/></g><text y="23.467" font-size="5" font-weight="bold" font-family="&apos;Helvetica Neue&apos;, Helvetica, Arial-Unicode, Arial, Sans-serif">Created by anbileru adaleru</text><text y="28.467" font-size="5" font-weight="bold" font-family="&apos;Helvetica Neue&apos;, Helvetica, Arial-Unicode, Arial, Sans-serif">from the Noun Project</text></symbol></svg>