<?xml version="1.0" encoding="UTF-8"?>
<svg width="88px" height="29px" viewBox="0 0 88 29" version="1.1" xmlns="http://www.w3.org/2000/svg" xmlns:xlink="http://www.w3.org/1999/xlink">
    <!-- Generator: Sketch 3.8.3 (29802) - http://www.bohemiancoding.com/sketch -->
    <title>Logo</title>
    <desc>Created with Sketch.</desc>
    <defs>
        <linearGradient x1="50%" y1="0%" x2="50%" y2="100%" id="linearGradient-1">
            <stop stop-color="#FFFFFF" offset="0%"></stop>
            <stop stop-color="#FFFFFF" offset="100%"></stop>
        </linearGradient>
    </defs>
    <g id="Page-1" stroke="none" stroke-width="1" fill="none" fill-rule="evenodd">
        <g id="two" transform="translate(-145.000000, -21.000000)">
            <g id="header" transform="translate(0.000000, -3.000000)">
                <g id="Logo" transform="translate(145.000000, 24.000000)">
                    <text id="HC-Books" font-family="AvenirNext-Medium, Avenir Next" font-size="17" font-weight="400" letter-spacing="3.1" fill="#FFFFFF">
                        <tspan x="3" y="19">HC</tspan>
                        <tspan x="33.629" y="19" font-size="18"> </tspan>
                        <tspan x="38.129" y="19" font-family="AvenirNext-Regular, Avenir Next" font-size="18" font-weight="normal">Books</tspan>
                    </text>
                    <path d="M0.346124417,0 C0.150488877,0.0300977754 0,0.226270776 0,0.422981236 L0,25.1956002 C0,25.421871 0.19563554,25.618044 0.421368855,25.618044 L13.0823205,25.618044 C14.8591642,25.618044 16.3038574,26.9310594 16.5295908,28.607398 C16.5295908,28.9545974 17.0417904,29.1357215 17.2675237,28.8793529 C17.2976215,28.8643041 17.3126704,28.8487177 17.3277193,28.8191574 C17.3879148,28.7589618 17.4330615,28.6831799 17.4481104,28.607398 C17.6738437,26.9315969 19.1346607,25.618044 20.9104294,25.618044 L33.5719186,25.618044 C33.782603,25.618044 33.9932875,25.421871 33.9932875,25.1956002 L33.9932875,0.422981236 C33.9932875,0.196710461 33.7820656,0 33.5719186,0 L20.9104294,0 C19.1792699,0 17.6888926,0.996451349 16.9966437,2.4610306 C16.3038574,0.996451349 14.8134801,0 13.0823205,0 L0.421368855,0 L0.39127108,0 L0.346124417,0 L0.346124417,0 L0.346124417,0 Z M0.842737711,0.845425012 L13.0817831,0.845425012 C15.0236271,0.845425012 16.5742,2.3852487 16.5742,4.28732061 L16.5742,26.6295442 C15.7766089,25.5272132 14.5420627,24.772619 13.0817831,24.772619 L0.842737711,24.772619 L0.842737711,0.845425012 L0.842737711,0.845425012 L0.842737711,0.845425012 Z M20.9104294,0.845425012 L33.1349634,0.845425012 L33.1349634,24.7731564 L20.9104294,24.7731564 C19.4501499,24.7731564 18.2005547,25.5277507 17.4180126,26.6300817 L17.4180126,4.28785807 C17.4180126,2.3852487 18.9685855,0.845425012 20.9104294,0.845425012 L20.9104294,0.845425012 L20.9104294,0.845425012 Z" id="Shape" fill="url(#linearGradient-1)"></path>
                </g>
            </g>
        </g>
    </g>
</svg>