<?xml version="1.0" encoding="UTF-8" standalone="no"?>
<svg width="64px" height="54px" viewBox="0 0 64 54" version="1.1" xmlns="http://www.w3.org/2000/svg" xmlns:xlink="http://www.w3.org/1999/xlink">
    <!-- Generator: Sketch 3.8.3 (29802) - http://www.bohemiancoding.com/sketch -->
    <title>Shape</title>
    <desc>Created with Sketch.</desc>
    <defs></defs>
    <g id="Page-1" stroke="none" stroke-width="1" fill="none" fill-rule="evenodd">
        <g id="One" transform="translate(-113.000000, -337.000000)" fill="#FFFFFF">
            <g id="noun_114030_cc" transform="translate(95.000000, 337.000000)">
                <g id="Group">
                    <path d="M19.02,0.021 C18.656,0.077 18.376,0.442 18.376,0.808 L18.376,46.9 C18.376,47.321 18.74,47.686 19.16,47.686 L42.717,47.686 C46.023,47.686 48.711,50.129 49.131,53.248 C49.131,53.894 50.084,54.231 50.504,53.754 C50.56,53.726 50.588,53.697 50.616,53.642 C50.728,53.53 50.812,53.389 50.84,53.248 C51.26,50.13 53.978,47.686 57.282,47.686 L80.84,47.686 C81.232,47.686 81.624,47.321 81.624,46.9 L81.624,0.808 C81.624,0.387 81.231,0.021 80.84,0.021 L57.282,0.021 C54.061,0.021 51.288,1.875 50,4.6 C48.711,1.875 45.938,0.021 42.717,0.021 L19.16,0.021 L19.104,0.021 L19.02,0.021 L19.02,0.021 L19.02,0.021 Z M19.944,1.594 L42.716,1.594 C46.329,1.594 49.214,4.459 49.214,7.998 L49.214,49.568 C47.73,47.517 45.433,46.113 42.716,46.113 L19.944,46.113 L19.944,1.594 L19.944,1.594 L19.944,1.594 Z M57.282,1.594 L80.027,1.594 L80.027,46.114 L57.282,46.114 C54.565,46.114 52.24,47.518 50.784,49.569 L50.784,7.999 C50.784,4.459 53.669,1.594 57.282,1.594 L57.282,1.594 L57.282,1.594 Z" id="Shape"></path>
                </g>
            </g>
        </g>
    </g>
</svg>