<?xml version="1.0" encoding="UTF-8" standalone="no"?>
<svg width="29px" height="25px" viewBox="0 0 29 25" version="1.1" xmlns="http://www.w3.org/2000/svg" xmlns:xlink="http://www.w3.org/1999/xlink">
    <!-- Generator: Sketch 3.8.3 (29802) - http://www.bohemiancoding.com/sketch -->
    <title>Shopping cart in 2</title>
    <desc>Created with Sketch.</desc>
    <defs></defs>
    <g id="Page-1" stroke="none" stroke-width="1" fill="none" fill-rule="evenodd">
        <g id="Icons" transform="translate(-380.000000, -514.000000)" fill="#FFFFFF">
            <path d="M396.33775,522.308 C396.44875,522.419 396.59175,522.472 396.73575,522.472 C396.87975,522.472 397.02475,522.419 397.13375,522.308 L399.80575,519.636 C400.02675,519.415 400.02675,519.06 399.80575,518.839 C399.58475,518.624 399.23175,518.62 399.01075,518.839 L397.29975,520.55 L397.29975,516.562 C397.29975,516.255 397.04575,516 396.73575,516 C396.42575,516 396.17375,516.256 396.17375,516.562 L396.17375,520.55 L394.46075,518.839 C394.24175,518.62 393.88475,518.62 393.66575,518.839 C393.44475,519.06 393.44475,519.415 393.66575,519.636 L396.33775,522.308 L396.33775,522.308 Z M406.73975,536.249 C406.73975,536.601 406.60275,536.929 406.35275,537.181 C406.10075,537.435 405.76675,537.572 405.41175,537.572 C404.68275,537.572 404.08575,536.978 404.08575,536.244 C404.08575,535.889 404.22275,535.558 404.47275,535.308 C404.72475,535.058 405.05675,534.917 405.41175,534.917 C406.14375,534.917 406.73975,535.515 406.73975,536.249 L406.73975,536.249 Z M389.55775,536.249 C389.55975,536.601 389.42275,536.929 389.17275,537.181 C388.92075,537.435 388.58475,537.572 388.22975,537.572 C387.49975,537.572 386.90575,536.978 386.90575,536.244 C386.90375,535.892 387.04075,535.558 387.29075,535.308 C387.54275,535.058 387.87675,534.917 388.22975,534.917 C388.96075,534.917 389.55775,535.515 389.55775,536.249 L389.55775,536.249 Z M388.22975,531.136 L388.22975,531.136 L388.23175,531.136 L405.24375,531.136 C405.49975,531.136 405.72575,530.96 405.78875,530.71 L408.62275,519.372 C408.62875,519.349 408.61075,519.327 408.61275,519.3 C408.61675,519.28 408.63975,519.263 408.63975,519.236 C408.63975,519.183 408.59675,519.148 408.58275,519.095 C408.56175,519.025 408.54975,518.962 408.50275,518.906 C408.45575,518.844 408.39875,518.818 408.33475,518.783 C408.28975,518.758 408.26675,518.703 408.21375,518.691 C408.18675,518.687 408.17075,518.703 408.14375,518.699 C408.12075,518.699 408.10275,518.674 408.07975,518.674 L403.19075,518.674 C402.87875,518.674 402.62675,518.928 402.62675,519.236 C402.62675,519.548 402.87875,519.798 403.19075,519.798 L407.35675,519.798 L404.80175,530.011 L388.67075,530.011 L386.11775,519.798 L390.28575,519.798 C390.59475,519.798 390.84775,519.548 390.84775,519.236 C390.84775,518.927 390.59375,518.674 390.28575,518.674 L385.83675,518.674 L384.99675,515.319 C384.93575,515.069 384.70775,514.893 384.45175,514.893 L380.67875,514.893 C380.36775,514.893 380.11475,515.149 380.11475,515.455 C380.11475,515.767 380.36875,516.017 380.67875,516.017 L384.01275,516.017 L384.85275,519.372 L387.54575,530.147 C387.15675,530.26 386.78775,530.436 386.49275,530.731 C386.02975,531.198 385.77775,531.811 385.77975,532.461 C385.77975,533.24 386.16475,533.904 386.73075,534.354 C386.65275,534.415 386.55875,534.446 386.49275,534.512 C386.02975,534.977 385.77775,535.592 385.77975,536.242 C385.77975,537.597 386.87975,538.695 388.22875,538.695 C388.88475,538.695 389.50575,538.441 389.96875,537.974 C390.42975,537.507 390.68175,536.894 390.67975,536.242 C390.67975,535.742 390.49375,535.306 390.23475,534.916 L403.40275,534.916 C403.14075,535.316 402.95775,535.76 402.95975,536.242 C402.95975,537.597 404.05975,538.695 405.41075,538.695 C406.06875,538.695 406.68375,538.441 407.14675,537.974 C407.61175,537.513 407.86575,536.898 407.86375,536.242 C407.86375,534.892 406.76375,533.795 405.41475,533.789 L405.41275,533.789 L388.22875,533.789 C387.49875,533.789 386.90475,533.197 386.90475,532.461 C386.90275,532.111 387.04175,531.777 387.28975,531.525 C387.54275,531.277 387.87675,531.136 388.22975,531.136 L388.22975,531.136 Z" id="Shopping-cart-in-2"></path>
        </g>
    </g>
</svg>