<?xml version="1.0" encoding="UTF-8" standalone="no"?>
<svg width="19px" height="19px" viewBox="0 0 19 19" version="1.1" xmlns="http://www.w3.org/2000/svg" xmlns:xlink="http://www.w3.org/1999/xlink">
    <!-- Generator: Sketch 3.8.3 (29802) - http://www.bohemiancoding.com/sketch -->
    <title>Shape</title>
    <desc>Created with Sketch.</desc>
    <defs></defs>
    <g id="Page-1" stroke="none" stroke-width="1" fill="none" fill-rule="evenodd">
        <g id="One" transform="translate(-340.000000, -22.000000)" fill="#F0F0F0">
            <g id="Group-2" transform="translate(11.000000, 21.000000)">
                <g id="search" transform="translate(329.000000, 1.000000)">
                    <path d="M18.7895122,17.9373018 L13.8919445,13.1179967 C15.17446,11.7245808 15.9624796,9.88176672 15.9624796,7.8539429 C15.9618597,3.51605383 12.3888679,0 7.98102284,0 C3.57317781,0 0.000185970636,3.51605383 0.000185970636,7.8539429 C0.000185970636,12.191832 3.57317781,15.7078858 7.98102284,15.7078858 C9.88551713,15.7078858 11.6322773,15.0491468 13.0043377,13.9539967 L17.9209054,18.7923018 C18.1604666,19.0282985 18.5493931,19.0282985 18.7889543,18.7923018 C19.0290734,18.5563361 19.0290734,18.1732985 18.7895122,17.9373018 L18.7895122,17.9373018 Z M7.98102284,14.4995106 C4.25150571,14.4995106 1.22815008,11.5241974 1.22815008,7.8539429 C1.22815008,4.18368842 4.25150571,1.2083752 7.98102284,1.2083752 C11.710571,1.2083752 14.7338956,4.18368842 14.7338956,7.8539429 C14.7338956,11.5241974 11.710571,14.4995106 7.98102284,14.4995106 L7.98102284,14.4995106 Z" id="Shape"></path>
                </g>
            </g>
        </g>
    </g>
</svg>